<mxfile host="app.diagrams.net" modified="2023-10-30T19:16:12.152Z" agent="Mozilla/5.0 (Macintosh; Intel Mac OS X 10_15_7) AppleWebKit/537.36 (KHTML, like Gecko) Chrome/118.0.0.0 Safari/537.36" etag="qZEQFpVzMrjFnlkxgN1l" version="22.0.8" type="github">
  <diagram name="Page-1" id="bfe91b75-5d2c-26a0-9c1d-138518896778">
    <mxGraphModel dx="765" dy="1247" grid="1" gridSize="10" guides="1" tooltips="1" connect="1" arrows="1" fold="1" page="1" pageScale="1" pageWidth="1100" pageHeight="850" background="none" math="0" shadow="0">
      <root>
        <mxCell id="0" />
        <mxCell id="1" parent="0" />
        <mxCell id="7c3789c024ecab99-53" value="Internet" style="html=1;fillColor=#CCCCCC;strokeColor=#6881B3;gradientColor=none;gradientDirection=north;strokeWidth=2;shape=mxgraph.networks.cloud;fontColor=#6881B3;rounded=0;shadow=0;comic=0;align=center;fontSize=28;" parent="1" vertex="1">
          <mxGeometry x="1890" y="510" width="330" height="140" as="geometry" />
        </mxCell>
        <mxCell id="7c3789c024ecab99-56" style="edgeStyle=none;html=1;labelBackgroundColor=none;endArrow=none;endFill=0;strokeWidth=2;fontFamily=Verdana;fontSize=28;fontColor=#6881B3;" parent="1" target="7c3789c024ecab99-53" edge="1">
          <mxGeometry relative="1" as="geometry">
            <mxPoint x="1948.4146341463415" y="770" as="sourcePoint" />
          </mxGeometry>
        </mxCell>
        <mxCell id="7c3789c024ecab99-59" style="edgeStyle=none;html=1;labelBackgroundColor=none;endArrow=none;endFill=0;strokeWidth=2;fontFamily=Verdana;fontSize=28;fontColor=#6881B3;" parent="1" target="3cCDGMneENlHjDCRStHv-5" edge="1">
          <mxGeometry relative="1" as="geometry">
            <mxPoint x="1723.4821428571427" y="882" as="targetPoint" />
            <mxPoint x="1906.5178571428569" y="800" as="sourcePoint" />
          </mxGeometry>
        </mxCell>
        <mxCell id="3cCDGMneENlHjDCRStHv-1" value="Main TP-Link Router&lt;br&gt;192.168.0.1" style="text;html=1;strokeColor=none;fillColor=none;align=center;verticalAlign=middle;whiteSpace=wrap;rounded=0;" vertex="1" parent="1">
          <mxGeometry x="1680" y="735" width="130" height="30" as="geometry" />
        </mxCell>
        <mxCell id="3cCDGMneENlHjDCRStHv-3" value="Optimum Aris Modem" style="text;html=1;strokeColor=none;fillColor=none;align=center;verticalAlign=middle;whiteSpace=wrap;rounded=0;" vertex="1" parent="1">
          <mxGeometry x="1890" y="809.41" width="130" height="30" as="geometry" />
        </mxCell>
        <mxCell id="3cCDGMneENlHjDCRStHv-4" value="" style="shape=mxgraph.cisco.modems_and_phones.cable_modem;html=1;pointerEvents=1;dashed=0;fillColor=#036897;strokeColor=#ffffff;strokeWidth=2;verticalLabelPosition=bottom;verticalAlign=top;align=center;outlineConnect=0;" vertex="1" parent="1">
          <mxGeometry x="1900" y="765" width="74" height="35" as="geometry" />
        </mxCell>
        <mxCell id="3cCDGMneENlHjDCRStHv-5" value="" style="image;html=1;image=img/lib/clip_art/networking/Wireless_Router_128x128.png" vertex="1" parent="1">
          <mxGeometry x="1670" y="780" width="80" height="80" as="geometry" />
        </mxCell>
        <mxCell id="3cCDGMneENlHjDCRStHv-6" value="" style="image;html=1;image=img/lib/clip_art/networking/Wireless_Router_128x128.png" vertex="1" parent="1">
          <mxGeometry x="1670" y="1020" width="80" height="80" as="geometry" />
        </mxCell>
        <mxCell id="3cCDGMneENlHjDCRStHv-7" value="My Room&#39;s TP-Link Router (Bridge Mode)&lt;br&gt;192.168.0.2" style="text;html=1;strokeColor=none;fillColor=none;align=center;verticalAlign=middle;whiteSpace=wrap;rounded=0;" vertex="1" parent="1">
          <mxGeometry x="1617.5" y="1100" width="242.5" height="30" as="geometry" />
        </mxCell>
        <mxCell id="3cCDGMneENlHjDCRStHv-9" value="" style="endArrow=none;html=1;rounded=0;" edge="1" parent="1" source="3cCDGMneENlHjDCRStHv-6" target="3cCDGMneENlHjDCRStHv-5">
          <mxGeometry width="50" height="50" relative="1" as="geometry">
            <mxPoint x="1660" y="940" as="sourcePoint" />
            <mxPoint x="1710" y="890" as="targetPoint" />
          </mxGeometry>
        </mxCell>
        <mxCell id="3cCDGMneENlHjDCRStHv-10" value="Matt&#39;s Room" style="swimlane;whiteSpace=wrap;html=1;" vertex="1" parent="1">
          <mxGeometry x="1130" y="1014.41" width="480" height="615.59" as="geometry" />
        </mxCell>
        <mxCell id="3cCDGMneENlHjDCRStHv-11" value="" style="fontColor=#0066CC;verticalAlign=top;verticalLabelPosition=bottom;labelPosition=center;align=center;html=1;outlineConnect=0;fillColor=#CCCCCC;strokeColor=#6881B3;gradientColor=none;gradientDirection=north;strokeWidth=2;shape=mxgraph.networks.desktop_pc;" vertex="1" parent="3cCDGMneENlHjDCRStHv-10">
          <mxGeometry x="312.5" y="35.59" width="30" height="60" as="geometry" />
        </mxCell>
        <mxCell id="3cCDGMneENlHjDCRStHv-12" value="" style="image;aspect=fixed;perimeter=ellipsePerimeter;html=1;align=center;shadow=0;dashed=0;spacingTop=3;image=img/lib/active_directory/cluster_server.svg;" vertex="1" parent="3cCDGMneENlHjDCRStHv-10">
          <mxGeometry x="215" y="185.59" width="50" height="50" as="geometry" />
        </mxCell>
        <mxCell id="3cCDGMneENlHjDCRStHv-13" value="Matt PC&lt;br&gt;192.168.0.166" style="text;html=1;strokeColor=none;fillColor=none;align=center;verticalAlign=middle;whiteSpace=wrap;rounded=0;" vertex="1" parent="3cCDGMneENlHjDCRStHv-10">
          <mxGeometry x="275" y="105.59" width="105" height="30" as="geometry" />
        </mxCell>
        <mxCell id="3cCDGMneENlHjDCRStHv-14" value="Proxmox Server&lt;br&gt;192.168.0.97&lt;br&gt;proxmox.*" style="text;html=1;strokeColor=none;fillColor=none;align=center;verticalAlign=middle;whiteSpace=wrap;rounded=0;" vertex="1" parent="3cCDGMneENlHjDCRStHv-10">
          <mxGeometry x="187.5" y="245.59" width="105" height="30" as="geometry" />
        </mxCell>
        <mxCell id="3cCDGMneENlHjDCRStHv-22" value="Containers" style="swimlane;fontStyle=0;childLayout=stackLayout;horizontal=1;startSize=30;horizontalStack=0;resizeParent=1;resizeParentMax=0;resizeLast=0;collapsible=1;marginBottom=0;whiteSpace=wrap;html=1;" vertex="1" parent="3cCDGMneENlHjDCRStHv-10">
          <mxGeometry x="30" y="305.59" width="140" height="270" as="geometry" />
        </mxCell>
        <mxCell id="3cCDGMneENlHjDCRStHv-23" value="Home Assistant (VM)" style="text;strokeColor=none;fillColor=none;align=left;verticalAlign=middle;spacingLeft=4;spacingRight=4;overflow=hidden;points=[[0,0.5],[1,0.5]];portConstraint=eastwest;rotatable=0;whiteSpace=wrap;html=1;" vertex="1" parent="3cCDGMneENlHjDCRStHv-22">
          <mxGeometry y="30" width="140" height="30" as="geometry" />
        </mxCell>
        <mxCell id="3cCDGMneENlHjDCRStHv-24" value="Samba" style="text;strokeColor=none;fillColor=none;align=left;verticalAlign=middle;spacingLeft=4;spacingRight=4;overflow=hidden;points=[[0,0.5],[1,0.5]];portConstraint=eastwest;rotatable=0;whiteSpace=wrap;html=1;" vertex="1" parent="3cCDGMneENlHjDCRStHv-22">
          <mxGeometry y="60" width="140" height="30" as="geometry" />
        </mxCell>
        <mxCell id="3cCDGMneENlHjDCRStHv-25" value="PiVPN (Wireguard)" style="text;strokeColor=none;fillColor=none;align=left;verticalAlign=middle;spacingLeft=4;spacingRight=4;overflow=hidden;points=[[0,0.5],[1,0.5]];portConstraint=eastwest;rotatable=0;whiteSpace=wrap;html=1;" vertex="1" parent="3cCDGMneENlHjDCRStHv-22">
          <mxGeometry y="90" width="140" height="30" as="geometry" />
        </mxCell>
        <mxCell id="3cCDGMneENlHjDCRStHv-26" value="PiHole/DNS Server" style="text;strokeColor=none;fillColor=none;align=left;verticalAlign=middle;spacingLeft=4;spacingRight=4;overflow=hidden;points=[[0,0.5],[1,0.5]];portConstraint=eastwest;rotatable=0;whiteSpace=wrap;html=1;" vertex="1" parent="3cCDGMneENlHjDCRStHv-22">
          <mxGeometry y="120" width="140" height="30" as="geometry" />
        </mxCell>
        <mxCell id="3cCDGMneENlHjDCRStHv-32" value="Homer Dashboard" style="text;strokeColor=none;fillColor=none;align=left;verticalAlign=middle;spacingLeft=4;spacingRight=4;overflow=hidden;points=[[0,0.5],[1,0.5]];portConstraint=eastwest;rotatable=0;whiteSpace=wrap;html=1;" vertex="1" parent="3cCDGMneENlHjDCRStHv-22">
          <mxGeometry y="150" width="140" height="30" as="geometry" />
        </mxCell>
        <mxCell id="3cCDGMneENlHjDCRStHv-44" value="Minecraft Server" style="text;strokeColor=none;fillColor=none;align=left;verticalAlign=middle;spacingLeft=4;spacingRight=4;overflow=hidden;points=[[0,0.5],[1,0.5]];portConstraint=eastwest;rotatable=0;whiteSpace=wrap;html=1;" vertex="1" parent="3cCDGMneENlHjDCRStHv-22">
          <mxGeometry y="180" width="140" height="30" as="geometry" />
        </mxCell>
        <mxCell id="3cCDGMneENlHjDCRStHv-52" value="Fivem Server" style="text;strokeColor=none;fillColor=none;align=left;verticalAlign=middle;spacingLeft=4;spacingRight=4;overflow=hidden;points=[[0,0.5],[1,0.5]];portConstraint=eastwest;rotatable=0;whiteSpace=wrap;html=1;" vertex="1" parent="3cCDGMneENlHjDCRStHv-22">
          <mxGeometry y="210" width="140" height="30" as="geometry" />
        </mxCell>
        <mxCell id="3cCDGMneENlHjDCRStHv-63" style="edgeStyle=orthogonalEdgeStyle;rounded=0;orthogonalLoop=1;jettySize=auto;html=1;exitX=1;exitY=0.5;exitDx=0;exitDy=0;" edge="1" parent="3cCDGMneENlHjDCRStHv-22" source="3cCDGMneENlHjDCRStHv-53">
          <mxGeometry relative="1" as="geometry">
            <mxPoint x="320" y="70" as="targetPoint" />
          </mxGeometry>
        </mxCell>
        <mxCell id="3cCDGMneENlHjDCRStHv-53" value="Web Server" style="text;strokeColor=none;fillColor=none;align=left;verticalAlign=middle;spacingLeft=4;spacingRight=4;overflow=hidden;points=[[0,0.5],[1,0.5]];portConstraint=eastwest;rotatable=0;whiteSpace=wrap;html=1;" vertex="1" parent="3cCDGMneENlHjDCRStHv-22">
          <mxGeometry y="240" width="140" height="30" as="geometry" />
        </mxCell>
        <mxCell id="3cCDGMneENlHjDCRStHv-54" value="" style="sketch=0;pointerEvents=1;shadow=0;dashed=0;html=1;strokeColor=none;fillColor=#434445;aspect=fixed;labelPosition=center;verticalLabelPosition=bottom;verticalAlign=top;align=center;outlineConnect=0;shape=mxgraph.vvd.ssd;" vertex="1" parent="3cCDGMneENlHjDCRStHv-10">
          <mxGeometry x="300" y="305.59" width="100" height="71" as="geometry" />
        </mxCell>
        <mxCell id="3cCDGMneENlHjDCRStHv-55" value="Additional Storage Medium" style="text;html=1;strokeColor=none;fillColor=none;align=center;verticalAlign=middle;whiteSpace=wrap;rounded=0;" vertex="1" parent="3cCDGMneENlHjDCRStHv-10">
          <mxGeometry x="295" y="385.59000000000003" width="105" height="30" as="geometry" />
        </mxCell>
        <mxCell id="3cCDGMneENlHjDCRStHv-59" style="edgeStyle=orthogonalEdgeStyle;rounded=0;orthogonalLoop=1;jettySize=auto;html=1;exitX=1;exitY=0.5;exitDx=0;exitDy=0;" edge="1" parent="3cCDGMneENlHjDCRStHv-10" source="3cCDGMneENlHjDCRStHv-24" target="3cCDGMneENlHjDCRStHv-54">
          <mxGeometry relative="1" as="geometry" />
        </mxCell>
        <mxCell id="3cCDGMneENlHjDCRStHv-61" style="edgeStyle=orthogonalEdgeStyle;rounded=0;orthogonalLoop=1;jettySize=auto;html=1;exitX=1;exitY=0.5;exitDx=0;exitDy=0;" edge="1" parent="3cCDGMneENlHjDCRStHv-10" source="3cCDGMneENlHjDCRStHv-44" target="3cCDGMneENlHjDCRStHv-54">
          <mxGeometry relative="1" as="geometry" />
        </mxCell>
        <mxCell id="3cCDGMneENlHjDCRStHv-62" style="edgeStyle=orthogonalEdgeStyle;rounded=0;orthogonalLoop=1;jettySize=auto;html=1;exitX=1;exitY=0.5;exitDx=0;exitDy=0;" edge="1" parent="3cCDGMneENlHjDCRStHv-10" source="3cCDGMneENlHjDCRStHv-52" target="3cCDGMneENlHjDCRStHv-54">
          <mxGeometry relative="1" as="geometry" />
        </mxCell>
        <mxCell id="3cCDGMneENlHjDCRStHv-64" value="/Server" style="text;html=1;strokeColor=none;fillColor=none;align=center;verticalAlign=middle;whiteSpace=wrap;rounded=0;" vertex="1" parent="3cCDGMneENlHjDCRStHv-10">
          <mxGeometry x="187.5" y="376.59000000000003" width="60" height="30" as="geometry" />
        </mxCell>
        <mxCell id="3cCDGMneENlHjDCRStHv-66" value="/minecraft" style="text;html=1;strokeColor=none;fillColor=none;align=center;verticalAlign=middle;whiteSpace=wrap;rounded=0;" vertex="1" parent="3cCDGMneENlHjDCRStHv-10">
          <mxGeometry x="215" y="475.59000000000003" width="60" height="30" as="geometry" />
        </mxCell>
        <mxCell id="3cCDGMneENlHjDCRStHv-67" value="/fivem" style="text;html=1;strokeColor=none;fillColor=none;align=center;verticalAlign=middle;whiteSpace=wrap;rounded=0;" vertex="1" parent="3cCDGMneENlHjDCRStHv-10">
          <mxGeometry x="215" y="505.59000000000003" width="60" height="30" as="geometry" />
        </mxCell>
        <mxCell id="3cCDGMneENlHjDCRStHv-91" value="/mattvandenberg.com" style="text;html=1;strokeColor=none;fillColor=none;align=center;verticalAlign=middle;whiteSpace=wrap;rounded=0;" vertex="1" parent="3cCDGMneENlHjDCRStHv-10">
          <mxGeometry x="215" y="535.59" width="60" height="30" as="geometry" />
        </mxCell>
        <mxCell id="3cCDGMneENlHjDCRStHv-92" value="Mounted in each as&amp;nbsp;&lt;br&gt;/vmstorage/Server" style="text;html=1;strokeColor=none;fillColor=none;align=center;verticalAlign=middle;whiteSpace=wrap;rounded=0;" vertex="1" parent="3cCDGMneENlHjDCRStHv-10">
          <mxGeometry x="380" y="445.59000000000003" width="60" height="30" as="geometry" />
        </mxCell>
        <mxCell id="3cCDGMneENlHjDCRStHv-97" value="" style="shape=flexArrow;endArrow=classic;html=1;rounded=0;entryX=0.5;entryY=0;entryDx=0;entryDy=0;" edge="1" parent="3cCDGMneENlHjDCRStHv-10" target="3cCDGMneENlHjDCRStHv-22">
          <mxGeometry width="50" height="50" relative="1" as="geometry">
            <mxPoint x="240" y="215.59000000000003" as="sourcePoint" />
            <mxPoint x="270" y="205.59000000000003" as="targetPoint" />
          </mxGeometry>
        </mxCell>
        <mxCell id="3cCDGMneENlHjDCRStHv-17" value="" style="endArrow=none;html=1;rounded=0;" edge="1" parent="1" source="3cCDGMneENlHjDCRStHv-12" target="3cCDGMneENlHjDCRStHv-6">
          <mxGeometry width="50" height="50" relative="1" as="geometry">
            <mxPoint x="1370" y="1260" as="sourcePoint" />
            <mxPoint x="1420" y="1210" as="targetPoint" />
          </mxGeometry>
        </mxCell>
        <mxCell id="3cCDGMneENlHjDCRStHv-18" value="" style="endArrow=none;html=1;rounded=0;exitX=1;exitY=0.5;exitDx=0;exitDy=0;exitPerimeter=0;" edge="1" parent="1" source="3cCDGMneENlHjDCRStHv-11" target="3cCDGMneENlHjDCRStHv-6">
          <mxGeometry width="50" height="50" relative="1" as="geometry">
            <mxPoint x="1550" y="1100" as="sourcePoint" />
            <mxPoint x="1600" y="1050" as="targetPoint" />
          </mxGeometry>
        </mxCell>
        <mxCell id="3cCDGMneENlHjDCRStHv-98" value="" style="endArrow=none;html=1;rounded=0;" edge="1" parent="1" target="3cCDGMneENlHjDCRStHv-5">
          <mxGeometry width="50" height="50" relative="1" as="geometry">
            <mxPoint x="1400" y="700" as="sourcePoint" />
            <mxPoint x="1450" y="810" as="targetPoint" />
          </mxGeometry>
        </mxCell>
        <mxCell id="3cCDGMneENlHjDCRStHv-99" value="&lt;font style=&quot;font-size: 20px;&quot;&gt;Rest of the house&lt;/font&gt;" style="text;html=1;strokeColor=none;fillColor=none;align=center;verticalAlign=middle;whiteSpace=wrap;rounded=0;" vertex="1" parent="1">
          <mxGeometry x="1285" y="680" width="155" height="30" as="geometry" />
        </mxCell>
      </root>
    </mxGraphModel>
  </diagram>
</mxfile>
